<?xml version="1.0" encoding="UTF-8"?>
<svg id="Layer_1" data-name="Layer 1" xmlns="http://www.w3.org/2000/svg" viewBox="0 0 64 64">
  <defs>
    <style>
      .cls-1 {
        stroke-width: 2px;
        fill: #ffffff;
      }
    </style>
  </defs>
  <path class="cls-1" d="M18.53,51.37l3.1,3.1c.1.1.23.15.35.15s.26-.05.35-.15l4.55-4.55c.91-.07,4.72-.46,6.78-1.81,2.41-1.59,4.97-4.53,7.68-7.64.87-.99,1.74-2,2.61-2.95,2.21-2.43,4.55-5.25,4.56-5.26.62-.67,1.45-2.26.17-3.54-.52-.52-1.06-.81-1.61-.9l1.47-1.47c1.06-1.06,1.06-2.79,0-3.85-.46-.46-1.06-.7-1.69-.75l.54-.54c1.06-1.06,1.06-2.79,0-3.85-1.06-1.06-2.79-1.06-3.85,0l-.44.44c-.06-.61-.31-1.2-.77-1.66-1.06-1.06-2.79-1.06-3.85,0l-11.3,11.3c.32-1.47.61-3.4.51-4.75-.11-1.44-1.05-2.37-2.46-2.45-1.08-.05-1.86.64-2.63,2.31.01-.33.01-.66-.01-.96-.11-1.44-1.05-2.38-2.46-2.45-1.29-.06-2.2.96-3.14,3.54-.52,1.42-1.38,2.88-2.29,4.43-.91,1.55-1.85,3.15-2.5,4.81-1.2,3.09-.32,6.4.01,7.42l-2.51,2.51c-.2.2-.2.51,0,.71l3.1,3.1,5.72,5.72ZM25.17,21.24c1.16.06,1.46.86,1.51,1.52.15,1.95-.61,5.33-.96,6.18,0,0,0,0,0,0-.02.06-.04.13-.04.19,0,.03.01.06.02.09,0,.03,0,.07.02.1.02.06.06.12.11.16,0,0,0,0,0,0,0,0,.02.01.03.02.04.03.08.07.13.09,0,0,0,0,0,0,.06.02.13.04.19.04.03,0,.06-.01.08-.02.03,0,.07,0,.1-.02.06-.02.12-.06.16-.11l12.64-12.64c.67-.67,1.76-.67,2.43,0s.67,1.76,0,2.43l-7.97,7.97-1.84,1.84c-.2.2-.2.51,0,.71.1.1.23.15.35.15s.26-.05.35-.15l9.81-9.81s0,0,0,0l1.92-1.92c.67-.67,1.76-.67,2.43,0,.67.67.67,1.76,0,2.43l-11.95,11.95c-.2.2-.2.51,0,.71.1.1.23.15.35.15s.26-.05.35-.15l9.96-9.96c.65-.65,1.78-.65,2.43,0s.67,1.76,0,2.43l-9.74,9.74c-.2.2-.2.51,0,.71.1.1.23.15.35.15s.26-.05.35-.15l6.65-6.65c.89-.89,1.65-.89,2.53-.01.9.9-.08,2.03-.21,2.17-.02.03-2.35,2.83-4.54,5.24-.87.96-1.75,1.97-2.62,2.97-2.66,3.06-5.18,5.95-7.47,7.47-2.07,1.37-6.44,1.66-6.48,1.66-.12,0-.24.06-.32.15l-4.33,4.33-2.75-2.75-5.37-5.37,4.38-4.38c.14-.14.18-.35.11-.53-.01-.04-1.39-3.74-.12-7.01.62-1.58,1.54-3.15,2.43-4.66.94-1.59,1.82-3.09,2.37-4.6.95-2.6,1.66-2.92,2.15-2.88ZM13.15,39.82c.14-.14.18-.35.11-.53-.01-.04-1.4-3.74-.12-7.01.62-1.58,1.54-3.15,2.43-4.66.93-1.59,1.82-3.09,2.37-4.6.95-2.6,1.62-2.9,2.15-2.88,1.16.06,1.46.86,1.51,1.52.07.99-.08,2.49-.42,4.14-.41.79-.88,1.59-1.37,2.41-.91,1.55-1.85,3.15-2.5,4.81-1.2,3.09-.32,6.4.01,7.42l-4.15,4.15-2.39-2.39,2.38-2.38Z"/>
  <path class="cls-1" d="M54.16,36.84l-4.31-2.18c-.24-.12-.55-.03-.67.22-.12.25-.03.55.22.67l4.31,2.18c.07.04.15.05.23.05.18,0,.36-.1.45-.27.12-.25.03-.55-.22-.67Z"/>
  <path class="cls-1" d="M46.23,37.82c-.24.14-.32.45-.18.68l2.42,4.17c.09.16.26.25.43.25.09,0,.17-.02.25-.07.24-.14.32-.45.18-.68l-2.42-4.17c-.14-.24-.45-.32-.68-.18Z"/>
  <path class="cls-1" d="M28.26,14.41c.09.17.26.27.45.27.08,0,.15-.02.23-.05.25-.12.35-.43.22-.67l-2.18-4.31c-.12-.25-.43-.34-.67-.22-.25.12-.35.43-.22.67l2.18,4.31Z"/>
  <path class="cls-1" d="M25.82,16.9l-4.17-2.42c-.24-.14-.54-.06-.68.18-.14.24-.06.54.18.68l4.17,2.42c.08.05.17.07.25.07.17,0,.34-.09.43-.25.14-.24.06-.54-.18-.68Z"/>
</svg>