<?xml version="1.0" encoding="UTF-8"?>
<svg id="Layer_1" data-name="Layer 1" xmlns="http://www.w3.org/2000/svg" viewBox="0 0 64 64">
  <defs>
    <style>
      .cls-1 {
        stroke-width: 2px;
        fill: #ffffff;
      }
    </style>
  </defs>
  <path class="cls-1" d="M15.73,31.4c3.4,2.34,9.27,3.76,15.77,3.83v13.93c0,.28.22.5.5.5s.5-.22.5-.5v-13.93c6.5-.07,12.37-1.49,15.77-3.83,1.89-1.3,2.88-2.82,2.88-4.39,0-4.53-8.16-8.09-18.65-8.2v-3.96c0-.28-.22-.5-.5-.5s-.5.22-.5.5v3.96c-10.5.11-18.65,3.67-18.65,8.2,0,1.58,1,3.09,2.88,4.39ZM31.5,19.8v7.25c0,.28.22.5.5.5s.5-.22.5-.5v-7.25c9.62.11,17.65,3.36,17.65,7.2,0,1.56-1.33,2.8-2.45,3.57-3.28,2.26-9.3,3.66-15.7,3.66s-12.42-1.4-15.7-3.66c-1.12-.77-2.45-2.01-2.45-3.57,0-3.84,8.03-7.09,17.65-7.2Z"/>
</svg>