<?xml version="1.0" encoding="UTF-8"?>
<svg id="Layer_1" data-name="Layer 1" xmlns="http://www.w3.org/2000/svg" viewBox="0 0 64 64">
  <defs>
    <style>
      .cls-1 {
        fill: #231f20;
        stroke-width: 2px;
        fill: #ffffff;
      }
    </style>
  </defs>
  <path class="cls-1" d="M32,10.03c-12.09,0-21.56,3.5-21.56,7.97v28.01c0,4.47,9.47,7.97,21.56,7.97s21.56-3.5,21.56-7.97v-28.01c0-4.47-9.47-7.97-21.56-7.97ZM32,11.03c11.14,0,20.56,3.19,20.56,6.97s-9.41,6.97-20.56,6.97-20.56-3.19-20.56-6.97,9.41-6.97,20.56-6.97ZM52.56,46c0,3.78-9.41,6.97-20.56,6.97s-20.56-3.19-20.56-6.97v-25.57c2.73,3.24,10.78,5.53,20.56,5.53s17.83-2.29,20.56-5.53v25.57Z"/>
</svg>