<?xml version="1.0" encoding="UTF-8"?>
<svg id="Layer_1" data-name="Layer 1" xmlns="http://www.w3.org/2000/svg" viewBox="0 0 64 64">
  <defs>
    <style>
      .cls-1 {
        stroke-width: 2px;
        fill: #ffffff;
      }
    </style>
  </defs>
  <path class="cls-1" d="M35.61,9.37c-7.78,0-14.75,5.18-17.01,12.61-5.01,3.31-8,8.85-8,14.86,0,9.81,7.98,17.79,17.79,17.79,7.8,0,14.77-5.18,17.02-12.62,5.01-3.3,8-8.83,8-14.84,0-9.82-7.99-17.8-17.8-17.8ZM28.38,53.63c-9.26,0-16.79-7.53-16.79-16.79,0-5.73,2.88-11.01,7.69-14.12,2.71-1.75,5.86-2.68,9.1-2.68,9.26,0,16.8,7.54,16.8,16.8,0,.44-.02.88-.05,1.31-.06.77-.17,1.52-.33,2.26-.08.39-.18.77-.3,1.14h0s0,0,0,0c-2.07,7.11-8.7,12.07-16.12,12.07ZM45.8,40.51c.01-.05.01-.11.03-.16.1-.47.17-.95.23-1.43.02-.14.03-.29.05-.43.05-.55.09-1.1.09-1.65,0-8.59-6.11-15.78-14.22-17.44-1.16-.24-2.36-.36-3.58-.36-.4,0-.8.02-1.2.04-.13,0-.26.02-.39.04-.27.02-.54.05-.81.09-.15.02-.3.05-.45.07-.25.04-.49.08-.73.13-.15.03-.31.07-.46.1-.24.06-.48.12-.71.18-.15.04-.3.08-.45.13-.25.08-.49.16-.74.25-.13.05-.26.09-.39.14-.29.11-.58.23-.86.36-.08.03-.16.07-.24.1-.35.16-.69.33-1.03.52,2.46-6.42,8.73-10.81,15.69-10.81,9.26,0,16.8,7.54,16.8,16.8,0,5.28-2.45,10.18-6.6,13.34Z"/>
  <path class="cls-1" d="M28.39,30.45c-3.52,0-6.38,2.86-6.38,6.38s2.86,6.38,6.38,6.38,6.38-2.86,6.38-6.38-2.86-6.38-6.38-6.38ZM28.39,42.21c-2.97,0-5.38-2.41-5.38-5.38s2.41-5.38,5.38-5.38,5.38,2.41,5.38,5.38-2.41,5.38-5.38,5.38Z"/>
  <path class="cls-1" d="M28.39,33.62c-1.77,0-3.21,1.44-3.21,3.21s1.44,3.21,3.21,3.21,3.21-1.44,3.21-3.21-1.44-3.21-3.21-3.21ZM28.39,39.04c-1.22,0-2.21-.99-2.21-2.21s.99-2.21,2.21-2.21,2.21.99,2.21,2.21-.99,2.21-2.21,2.21Z"/>
</svg>