<?xml version="1.0" encoding="UTF-8"?>
<svg id="Layer_1" data-name="Layer 1" xmlns="http://www.w3.org/2000/svg" viewBox="0 0 64 64">
  <defs>
    <style>
      .cls-1 {
        stroke-width: 2px;
        fill: #ffffff;
      }
    </style>
  </defs>
  <path class="cls-1" d="M12.85,30.99c0,4.53,8.16,8.09,18.65,8.2v13.94c0,.28.22.5.5.5s.5-.22.5-.5v-13.94c10.5-.11,18.65-3.67,18.65-8.2,0-1.42-.81-2.79-2.33-3.99,1.52-1.2,2.33-2.57,2.33-3.98,0-4.53-8.16-8.09-18.65-8.2v-3.96c0-.28-.22-.5-.5-.5s-.5.22-.5.5v3.96c-10.5.11-18.65,3.67-18.65,8.2,0,1.41.81,2.78,2.33,3.98-1.52,1.2-2.33,2.57-2.33,3.99ZM50.15,30.99c0,3.91-8.31,7.21-18.15,7.21,0,0,0,0,0,0s0,0,0,0c-9.84,0-18.15-3.3-18.15-7.21,0-1.44,1.13-2.61,2.18-3.38.03.02.07.04.1.06.39.25.81.49,1.26.71.06.03.12.06.19.09.46.22.94.44,1.45.64.06.03.13.05.2.07.52.2,1.06.38,1.63.56.07.02.13.04.2.06.58.17,1.17.33,1.79.47.06.01.13.03.19.04.63.14,1.27.27,1.94.38.06,0,.11.02.17.03.68.11,1.37.2,2.08.28.05,0,.09,0,.14.01.73.08,1.47.14,2.22.18.03,0,.05,0,.08,0,.77.04,1.56.06,2.35.06s1.58-.02,2.35-.06c.03,0,.05,0,.08,0,.75-.04,1.49-.1,2.22-.18.05,0,.09,0,.14-.01.71-.08,1.4-.17,2.08-.28.06,0,.12-.02.17-.03.66-.11,1.31-.24,1.94-.38.06-.01.13-.03.19-.04.62-.14,1.21-.3,1.79-.47.07-.02.13-.04.2-.06.57-.17,1.11-.36,1.63-.56.07-.02.13-.05.2-.07.51-.2.99-.41,1.45-.64.06-.03.13-.06.19-.09.45-.23.87-.46,1.26-.71.03-.02.07-.04.1-.06,1.05.78,2.18,1.94,2.18,3.38ZM13.85,23.03c0-3.84,8.03-7.09,17.65-7.2v7.25c0,.28.22.5.5.5s.5-.22.5-.5v-7.25c9.62.11,17.65,3.36,17.65,7.2,0,1.56-1.33,2.8-2.45,3.57-3.28,2.26-9.29,3.66-15.7,3.66s-12.43-1.4-15.7-3.66c-1.12-.77-2.45-2.01-2.45-3.57Z"/>
</svg>