<?xml version="1.0" encoding="UTF-8"?>
<svg id="Layer_1" data-name="Layer 1" xmlns="http://www.w3.org/2000/svg" viewBox="0 0 64 64">
  <defs>
    <style>
      .cls-1 {
        stroke-width: 2px;
        fill: #ffffff;
      }
    </style>
  </defs>
  <path class="cls-1" d="M48.62,27.56c0-9.16-7.46-16.62-16.62-16.62s-16.62,7.46-16.62,16.62,7.19,16.33,16.12,16.59v8.4c0,.28.22.5.5.5s.5-.22.5-.5v-8.4c8.93-.27,16.12-7.6,16.12-16.59ZM32.5,43.16v-11.68c1.95-.25,3.46-1.9,3.46-3.91,0-2.19-1.78-3.96-3.96-3.96s-3.96,1.78-3.96,3.96c0,2.02,1.51,3.67,3.46,3.91v11.68c-8.38-.27-15.12-7.15-15.12-15.59s7.01-15.62,15.62-15.62,15.62,7.01,15.62,15.62-6.74,15.33-15.12,15.59Z"/>
</svg>